<svg width="1280" height="720" xmlns="http://www.w3.org/2000/svg" xmlns:xlink="http://www.w3.org/1999/xlink" overflow="hidden"><g><rect x="0" y="0" width="1280" height="720" fill="#FFFFFF"/><rect x="268.5" y="209.5" width="667" height="301" stroke="#262626" stroke-linejoin="round" stroke-miterlimit="10" fill="#7BC7FF"/><rect x="290.5" y="296.5" width="152" height="128" stroke="#525252" fill="#BDE3FF"/><text font-family="IntelOne Text,IntelOne Text_MSFontService,sans-serif" font-weight="400" font-size="19" transform="translate(320.576 366)">Attributes</text><rect x="450.5" y="296.5" width="152" height="128" stroke="#000000" stroke-linejoin="round" stroke-miterlimit="10" fill="#FAE093"/><text font-family="IntelOne Text,IntelOne Text_MSFontService,sans-serif" font-style="italic" font-weight="400" font-size="19" transform="translate(468.707 355)">Internal state</text><text font-family="IntelOne Text,IntelOne Text_MSFontService,sans-serif" font-style="italic" font-weight="400" font-size="19" transform="translate(461.207 378)">representation</text><rect x="770.5" y="296.5" width="152" height="60" stroke="#525252" fill="#BDE3FF"/><text font-family="IntelOne Text,IntelOne Text_MSFontService,sans-serif" font-weight="400" font-size="19" transform="translate(808.053 332)">Connect</text><rect x="770.5" y="365.5" width="152" height="59" stroke="#525252" fill="#BDE3FF"/><text font-family="IntelOne Text,IntelOne Text_MSFontService,sans-serif" font-weight="400" font-size="19" transform="translate(827.053 400)">Port</text><rect x="354" y="542" width="495" height="73" fill="#F6CB4B"/><text font-family="IntelOne Text,IntelOne Text_MSFontService,sans-serif" font-weight="400" font-size="21" transform="translate(515.94 586)">Simics scheduler</text><path d="M1.33335 6.66666 1.33342 41.9839-1.33324 41.9839-1.33332 6.66667ZM-3.99998 8.00001 0 0 4.00002 7.99999ZM4.00009 40.6506 0.000104987 48.6506-3.99991 40.6506Z" transform="matrix(-1 0 0 1 601.5 174.5)"/><rect x="80" y="297" width="158" height="125" fill="#F6CB4B"/><text font-family="IntelOne Text,IntelOne Text_MSFontService,sans-serif" font-weight="400" font-size="21" transform="translate(130.702 337)">Tools</text><text font-family="IntelOne Text,IntelOne Text_MSFontService,sans-serif" font-weight="400" font-size="21" transform="translate(89.782 370)">Configuration</text><text font-family="IntelOne Text,IntelOne Text_MSFontService,sans-serif" font-weight="400" font-size="21" transform="translate(135.035 404)">User</text><path d="M245.189 358.284 284.212 358.966 284.165 361.633 245.142 360.95ZM246.429 363.639 238.5 359.5 246.569 355.641ZM282.926 356.277 290.854 360.416 282.786 364.276Z"/><rect x="962" y="209" width="254" height="294" fill="#F6CB4B"/><text font-family="IntelOne Text,IntelOne Text_MSFontService,sans-serif" font-weight="400" font-size="21" transform="translate(974.417 464)">Other device, bus, real</text><text font-family="IntelOne Text,IntelOne Text_MSFontService,sans-serif" font-weight="400" font-size="21" transform="translate(1195.58 464)">-</text><text font-family="IntelOne Text,IntelOne Text_MSFontService,sans-serif" font-weight="400" font-size="21" transform="translate(990.583 490)">world connection, …</text><rect x="975.5" y="296.5" width="163" height="60" stroke="#525252" fill="#FDF5DB"/><text font-family="IntelOne Text,IntelOne Text_MSFontService,sans-serif" font-weight="400" font-size="19" transform="translate(1037.18 332)">Port</text><rect x="975.5" y="365.5" width="163" height="59" stroke="#525252" fill="#FDF5DB"/><text font-family="IntelOne Text,IntelOne Text_MSFontService,sans-serif" font-weight="400" font-size="19" transform="translate(1018.18 400)">Connect</text><path d="M6.66667-1.33332 53.1102-1.33323 53.1102 1.33344 6.66666 1.33335ZM7.99999 4.00002 0 0 8.00001-3.99998Z" transform="matrix(-1 0 0 1 975.61 326.5)"/><path d="M929.167 394.167 975.61 394.167 975.61 396.833 929.167 396.833ZM930.5 399.5 922.5 395.5 930.5 391.5Z"/><rect x="526.5" y="434.5" width="151" height="60" stroke="#525252" fill="#BDE3FF"/><text font-family="IntelOne Text,IntelOne Text_MSFontService,sans-serif" font-weight="400" font-size="19" transform="translate(541.357 470)">Events (time)</text><path d="M1.33335 6.66666 1.33342 41.0272-1.33324 41.0272-1.33332 6.66667ZM-3.99998 8.00001 0 0 4.00002 7.99999ZM4.00009 39.6938 0.000104987 47.6939-3.99991 39.6939Z" transform="matrix(1 0 0 -1 601.5 542.194)"/><rect x="610.5" y="296.5" width="152" height="128" stroke="#000000" stroke-linejoin="round" stroke-miterlimit="10" fill="#BAD18D"/><text font-family="IntelOne Text,IntelOne Text_MSFontService,sans-serif" font-style="italic" font-weight="400" font-size="19" transform="translate(639.755 355)">Behavioral</text><text font-family="IntelOne Text,IntelOne Text_MSFontService,sans-serif" font-style="italic" font-weight="400" font-size="19" transform="translate(664.922 378)">logic</text><rect x="27.5001" y="527.5" width="80" height="30" stroke="#525252" fill="#BDE3FF"/><text fill="#525252" font-family="IntelOne Text,IntelOne Text_MSFontService,sans-serif" font-weight="400" font-size="21" transform="translate(118.605 549)">Current C++ API</text><rect x="27.5001" y="572.5" width="80" height="30" stroke="#525252" fill="#0095BE"/><text fill="#525252" font-family="IntelOne Text,IntelOne Text_MSFontService,sans-serif" font-weight="400" font-size="21" transform="translate(118.605 594)">Tech preview</text><rect x="469" y="120" width="265" height="55" fill="#F6CB4B"/><text font-family="IntelOne Text,IntelOne Text_MSFontService,sans-serif" font-weight="400" font-size="21" transform="translate(555.107 155)">Software</text><rect x="469.5" y="227.5" width="265" height="56" stroke="#000000" stroke-linejoin="round" stroke-miterlimit="10" fill="#0095BE"/><text fill="#FFFFFF" font-family="IntelOne Text,IntelOne Text_MSFontService,sans-serif" font-weight="400" font-size="19" transform="translate(500.023 261)">Programming registers</text></g></svg>