<?xml version="1.0" encoding="us-ascii" standalone="no"?><svg xmlns="http://www.w3.org/2000/svg" xmlns:xlink="http://www.w3.org/1999/xlink" contentStyleType="text/css" height="842px" preserveAspectRatio="none" style="width:919px;height:842px;background:#FFFFFF;" version="1.1" viewBox="0 0 919 842" width="919px" zoomAndPan="magnify"><defs/><g><path d="M19.5,7 L893.5,7 A12.5,12.5 0 0 1 906,19.5 L906,34.6094 L7,34.6094 L7,19.5 A12.5,12.5 0 0 1 19.5,7 " fill="#F1F1F1" style="stroke:#F1F1F1;stroke-width:1.0;"/><rect fill="none" height="829.6094" rx="12.5" ry="12.5" style="stroke:#181818;stroke-width:0.5;" width="899" x="7" y="7"/><line style="stroke:#181818;stroke-width:0.5;" x1="7" x2="906" y1="34.6094" y2="34.6094"/><text fill="#000000" font-family="sans-serif" font-size="14" lengthAdjust="spacing" textLength="12" x="450.5" y="26.5332">IP</text><!--cluster IP_IMPL--><g id="cluster_IP_IMPL"><path d="M31.5,46.6094 L522.5,46.6094 A12.5,12.5 0 0 1 535,59.1094 L535,69.2188 L19,69.2188 L19,59.1094 A12.5,12.5 0 0 1 31.5,46.6094 " fill="#F1F1F1" style="stroke:#F1F1F1;stroke-width:1.0;"/><rect fill="none" height="780" rx="12.5" ry="12.5" style="stroke:#181818;stroke-width:0.5;" width="516" x="19" y="46.6094"/><line style="stroke:#181818;stroke-width:0.5;" x1="19" x2="535" y1="69.2188" y2="69.2188"/><text fill="#000000" font-family="sans-serif" font-size="14" lengthAdjust="spacing" textLength="51" x="251.5" y="65.1426">IP_IMPL</text></g><g id="IP.IP_IMPL.IP_READY_2_RESET"><rect fill="#F1F1F1" height="50" rx="12.5" ry="12.5" style="stroke:#181818;stroke-width:0.5;" width="157" x="96.5" y="194.6094"/><line style="stroke:#181818;stroke-width:0.5;" x1="96.5" x2="253.5" y1="222.2188" y2="222.2188"/><text fill="#000000" font-family="sans-serif" font-size="14" lengthAdjust="spacing" textLength="137" x="106.5" y="214.1426">IP_READY_2_RESET</text></g><g id="IP.IP_IMPL.IP_RESET_COMPLETE"><rect fill="#F1F1F1" height="50" rx="12.5" ry="12.5" style="stroke:#181818;stroke-width:0.5;" width="170" x="160" y="752.6094"/><line style="stroke:#181818;stroke-width:0.5;" x1="160" x2="330" y1="780.2188" y2="780.2188"/><text fill="#000000" font-family="sans-serif" font-size="14" lengthAdjust="spacing" textLength="150" x="170" y="772.1426">IP_RESET_COMPLETE</text></g><g id="IP.IP_IMPL.DEASSERT_RESET"><rect fill="#F1F1F1" height="50" rx="12.5" ry="12.5" style="stroke:#181818;stroke-width:0.5;" width="148" x="189" y="90.6094"/><line style="stroke:#181818;stroke-width:0.5;" x1="189" x2="337" y1="118.2188" y2="118.2188"/><text fill="#000000" font-family="sans-serif" font-size="14" lengthAdjust="spacing" textLength="128" x="199" y="110.1426">DEASSERT_RESET</text></g><g id="IP.IP_IMPL.SEND_RESET_PREP"><rect fill="#F1F1F1" height="50" rx="12.5" ry="12.5" style="stroke:#181818;stroke-width:0.5;" width="156" x="147" y="298.6094"/><line style="stroke:#181818;stroke-width:0.5;" x1="147" x2="303" y1="326.2188" y2="326.2188"/><text fill="#000000" font-family="sans-serif" font-size="14" lengthAdjust="spacing" textLength="136" x="157" y="318.1426">SEND_RESET_PREP</text></g><g id="IP.IP_IMPL.SEND_POWER_CYCLE"><rect fill="#F1F1F1" height="50" rx="12.5" ry="12.5" style="stroke:#181818;stroke-width:0.5;" width="171" x="159.5" y="544.6094"/><line style="stroke:#181818;stroke-width:0.5;" x1="159.5" x2="330.5" y1="572.2188" y2="572.2188"/><text fill="#000000" font-family="sans-serif" font-size="14" lengthAdjust="spacing" textLength="151" x="169.5" y="564.1426">SEND_POWER_CYCLE</text></g><g id="IP.IP_IMPL.RESTORE_IP"><rect fill="#F1F1F1" height="50" rx="12.5" ry="12.5" style="stroke:#181818;stroke-width:0.5;" width="107" x="191.5" y="648.6094"/><line style="stroke:#181818;stroke-width:0.5;" x1="191.5" x2="298.5" y1="676.2188" y2="676.2188"/><text fill="#000000" font-family="sans-serif" font-size="14" lengthAdjust="spacing" textLength="87" x="201.5" y="668.1426">RESTORE_IP</text></g><g id="IP.IP_IMPL.WAIT_FOR_ACKNOWLEDGE"><rect fill="#F1F1F1" height="50" rx="12.5" ry="12.5" style="stroke:#181818;stroke-width:0.5;" width="208" x="295" y="440.6094"/><line style="stroke:#181818;stroke-width:0.5;" x1="295" x2="503" y1="468.2188" y2="468.2188"/><text fill="#000000" font-family="sans-serif" font-size="14" lengthAdjust="spacing" textLength="188" x="305" y="460.1426">WAIT_FOR_ACKNOWLEDGE</text></g><g id="IP.IP_ON_BUSY"><rect fill="#F1F1F1" height="50" rx="12.5" ry="12.5" style="stroke:#181818;stroke-width:0.5;" width="104" x="559" y="194.6094"/><line style="stroke:#181818;stroke-width:0.5;" x1="559" x2="663" y1="222.2188" y2="222.2188"/><text fill="#000000" font-family="sans-serif" font-size="14" lengthAdjust="spacing" textLength="84" x="569" y="214.1426">IP_ON_BUSY</text></g><!--link DEASSERT_RESET to IP_READY_2_RESET--><g id="link_DEASSERT_RESET_IP_READY_2_RESET"><path d="M193.44,140.6994 C186.59,145.6394 180.52,151.5394 176,158.6094 C169.32,169.0594 168.042,176.7793 169.212,188.4593 " fill="none" id="DEASSERT_RESET-to-IP_READY_2_RESET" style="stroke:#181818;stroke-width:1.0;"/><polygon fill="#181818" points="169.81,194.4294,172.893,185.0755,169.3116,189.4543,164.9329,185.8729,169.81,194.4294" style="stroke:#181818;stroke-width:1.0;"/><text fill="#000000" font-family="sans-serif" font-size="13" lengthAdjust="spacing" textLength="151" x="177" y="173.1045">ENABLE_LOCK(set_lock)</text></g><!--link IP_READY_2_RESET to IP_RESET_COMPLETE--><g id="link_IP_READY_2_RESET_IP_RESET_COMPLETE"><path d="M120.34,244.7394 C91.08,261.7294 61,287.6894 61,322.6094 C61,322.6094 61,322.6094 61,674.6094 C61,723.6394 105.8171,747.7001 153.9471,761.0101 " fill="none" id="IP_READY_2_RESET-to-IP_RESET_COMPLETE" style="stroke:#181818;stroke-width:1.0;"/><polygon fill="#181818" points="159.73,762.6094,152.1217,756.3552,154.9109,761.2767,149.9894,764.0658,159.73,762.6094" style="stroke:#181818;stroke-width:1.0;"/><text fill="#000000" font-family="sans-serif" font-size="13" lengthAdjust="spacing" textLength="214" x="62" y="471.1045">IP_GO_TO_SLEEP(no_power_cycle)</text></g><!--link IP_READY_2_RESET to SEND_RESET_PREP--><g id="link_IP_READY_2_RESET_SEND_RESET_PREP"><path d="M186.85,244.7794 C194.76,260.9194 202.4894,276.6917 210.4194,292.8717 " fill="none" id="IP_READY_2_RESET-to-SEND_RESET_PREP" style="stroke:#181818;stroke-width:1.0;"/><polygon fill="#181818" points="213.06,298.2594,212.6909,288.4174,210.8595,293.7696,205.5073,291.9382,213.06,298.2594" style="stroke:#181818;stroke-width:1.0;"/><text fill="#000000" font-family="sans-serif" font-size="13" lengthAdjust="spacing" textLength="213" x="204" y="277.1045">EXECUTE_RESET(send_reset_prep)</text></g><!--link SEND_RESET_PREP to WAIT_FOR_ACKNOWLEDGE--><g id="link_SEND_RESET_PREP_WAIT_FOR_ACKNOWLEDGE"><path d="M254.91,348.6794 C286.78,374.3194 332.2748,410.9287 364.2248,436.6287 " fill="none" id="SEND_RESET_PREP-to-WAIT_FOR_ACKNOWLEDGE" style="stroke:#181818;stroke-width:1.0;"/><polygon fill="#181818" points="368.9,440.3894,364.3943,431.6316,365.004,437.2555,359.3801,437.8652,368.9,440.3894" style="stroke:#181818;stroke-width:1.0;"/><text fill="#000000" font-family="sans-serif" font-size="13" lengthAdjust="spacing" textLength="127" x="322" y="400.1045">RESET_PREP_SENT</text></g><!--link WAIT_FOR_ACKNOWLEDGE to SEND_POWER_CYCLE--><g id="link_WAIT_FOR_ACKNOWLEDGE_SEND_POWER_CYCLE"><path d="M334.39,490.7094 C323.51,495.9194 312.64,501.9094 303,508.6094 C288.6,518.6094 278.822,528.0635 268.332,539.9935 " fill="none" id="WAIT_FOR_ACKNOWLEDGE-to-SEND_POWER_CYCLE" style="stroke:#181818;stroke-width:1.0;"/><polygon fill="#181818" points="264.37,544.4994,273.3169,540.3819,267.6716,540.7445,267.3091,535.0993,264.37,544.4994" style="stroke:#181818;stroke-width:1.0;"/><text fill="#000000" font-family="sans-serif" font-size="13" lengthAdjust="spacing" textLength="256" x="304" y="523.1045">ACKNOWLEDGE_RECEIVED(cycle_power)</text></g><!--link SEND_POWER_CYCLE to RESTORE_IP--><g id="link_SEND_POWER_CYCLE_RESTORE_IP"><path d="M245,594.7794 C245,610.9194 245,626.0794 245,642.2594 " fill="none" id="SEND_POWER_CYCLE-to-RESTORE_IP" style="stroke:#181818;stroke-width:1.0;"/><polygon fill="#181818" points="245,648.2594,249,639.2594,245,643.2594,241,639.2594,245,648.2594" style="stroke:#181818;stroke-width:1.0;"/><text fill="#000000" font-family="sans-serif" font-size="13" lengthAdjust="spacing" textLength="221" x="246" y="627.1045">POWER_UP(restore_state_if_needed)</text></g><!--link RESTORE_IP to IP_RESET_COMPLETE--><g id="link_RESTORE_IP_IP_RESET_COMPLETE"><path d="M245,698.7794 C245,714.9194 245,730.0794 245,746.2594 " fill="none" id="RESTORE_IP-to-IP_RESET_COMPLETE" style="stroke:#181818;stroke-width:1.0;"/><polygon fill="#181818" points="245,752.2594,249,743.2594,245,747.2594,241,743.2594,245,752.2594" style="stroke:#181818;stroke-width:1.0;"/><text fill="#000000" font-family="sans-serif" font-size="13" lengthAdjust="spacing" textLength="210" x="246" y="731.1045">LOCK_DEASSERTED(trigger_timer)</text></g><!--link IP_ON_BUSY to DEASSERT_RESET--><g id="link_IP_ON_BUSY_DEASSERT_RESET"><path d="M558.96,204.2394 C544.79,200.6894 529.37,197.1794 515,194.6094 C442.82,181.6894 418.61,204.9994 351,176.6094 C339.35,171.7194 339.24,166.0094 329,158.6094 C320.64,152.5594 316.4671,149.6439 307.6471,143.9739 " fill="none" id="IP_ON_BUSY-to-DEASSERT_RESET" style="stroke:#181818;stroke-width:1.0;"/><polygon fill="#181818" points="302.6,140.7294,308.0076,148.9609,306.8059,143.4332,312.3336,142.2315,302.6,140.7294" style="stroke:#181818;stroke-width:1.0;"/><text fill="#000000" font-family="sans-serif" font-size="13" lengthAdjust="spacing" textLength="235" x="352" y="173.1045">GOTO_ON_AVAILABLE(deassert_reset)</text></g><!--link IP_RESET_COMPLETE to IP_ON_BUSY--><g id="link_IP_RESET_COMPLETE_IP_ON_BUSY"><path d="M330.41,767.2394 C428.19,754.0794 575,725.8094 575,674.6094 C575,322.6094 575,322.6094 575,322.6094 C575,294.8194 584.3318,270.4285 594.4818,250.2685 " fill="none" id="IP_RESET_COMPLETE-to-IP_ON_BUSY" style="stroke:#181818;stroke-width:1.0;"/><polygon fill="#181818" points="597.18,244.9094,589.56,251.1493,594.9315,249.3753,596.7055,254.7468,597.18,244.9094" style="stroke:#181818;stroke-width:1.0;"/><text fill="#000000" font-family="sans-serif" font-size="13" lengthAdjust="spacing" textLength="101" x="576" y="471.1045">TIMER_EXPIRED</text></g><!--link IP_ON_BUSY to IP_ON_BUSY--><g id="link_IP_ON_BUSY_IP_ON_BUSY"><path d="M663.2,210.2594 C673.59,211.3094 681,214.4294 681,219.6094 C681,224.7894 679.5596,227.3061 669.1696,228.3561 " fill="none" id="IP_ON_BUSY-to-IP_ON_BUSY" style="stroke:#181818;stroke-width:1.0;"/><polygon fill="#181818" points="663.2,228.9594,672.5566,232.0342,668.1747,228.4566,671.7522,224.0747,663.2,228.9594" style="stroke:#181818;stroke-width:1.0;"/><text fill="#000000" font-family="sans-serif" font-size="13" lengthAdjust="spacing" textLength="204" x="687" y="225.1045">ENTER_RESET(complete_request)</text></g><!--link IP_IMPL to IP_ON_BUSY--><g id="link_IP_IMPL_IP_ON_BUSY"><path d="M535.0021,126.3234 C535.0698,126.4057 535.138,126.4884 535.2065,126.5716 C535.4804,126.9043 535.76,127.2438 536.045,127.5899 C536.615,128.2821 537.2068,129.0007 537.8188,129.7438 C539.0428,131.2302 540.3476,132.8147 541.721,134.4825 C544.4679,137.8181 547.4891,141.4869 550.6863,145.3694 C563.475,160.8994 575.2659,175.2177 587.3959,189.9477 " fill="none" id="IP_IMPL-to-IP_ON_BUSY" style="stroke:#181818;stroke-width:1.0;"/><polygon fill="#181818" points="591.21,194.5794,588.5766,185.0891,588.0316,190.7196,582.401,190.1746,591.21,194.5794" style="stroke:#181818;stroke-width:1.0;"/><text fill="#000000" font-family="sans-serif" font-size="13" lengthAdjust="spacing" textLength="293" x="575" y="173.1045">FSM_RESET_ASSERTED(is_not_powering_down)</text></g><!--SRC=[XLHDRu904BtxA_O81oyzScY2C1eYiWJmwpGni3Ma2XHeJ6Fyxnq-51QnvKBOcNcyUUy1OumLvQ4Kp7BPbKrOUztFa3iuM_lxvuArScrsVPnBDGzqSuzlTFSXUDL29JGueK008pqcwBuFNj22I1roZKsdxqzlrHWu-im6jBcnL0fHuYaDFrK9PZZJ0VMvQTNHWcF0qRS1N2L9CKil8iVm9pm9TJ92tWV7R65S3znN7IxVWeV6th375A3vW7k0rjZyLhS2d7CFTMFfyAqDvWB-Nsx0YqJQWR4Ee3aZcP88Sr6fbUKYazMI7WP014xeOvmqrdKXJGsS71lfcFRqqLYlWzviWBK1KwajQEmO6344g54xIJNMrDQkGWkNQIwm5XRZ3qo4Y4Jqn_OTpAl8LAd3Uqo9Pvd7noD5fepF5TCxqAtZt7rhDQOSSOqjEEMF6lIDRjbLi9L878f2v6LZc3gHZE-pkNDiuJKMM2lQ77QkvO4vUTfmmAG_IVxHP1EMC3rd9q6AvUBhcoHKfLtgtyDmVEwlMcuFOU82axHi78oJ8qRf9MbskVq2]--></g></svg>